<?xml version="1.0" encoding="utf-8"?>
<!-- Generator: Adobe Illustrator 27.2.0, SVG Export Plug-In . SVG Version: 6.00 Build 0)  -->
<svg version="1.1" id="Layer_1" xmlns="http://www.w3.org/2000/svg" xmlns:xlink="http://www.w3.org/1999/xlink" x="0px" y="0px"
	 viewBox="0 0 508.6 536.8" style="enable-background:new 0 0 508.6 536.8;" xml:space="preserve">
<path d="M498.2,282.7c-21.4-59.8-60.8-104.4-115.8-135.5c-7.9-4.4-16-8.4-24-12.6c-4.2-2.2-6.8-5.4-6.3-10.5c0.1-1,0-2-0.2-3
	c-3.8-23.9-13.5-44.7-31.3-61.4c-3.1-2.8-4-6-1.8-9.6c5.1-8.5,12.2-14.1,22.4-15.3c2.3-0.3,4.7-0.8,6.9-1.7
	c7.8-3.2,11.8-10.5,10.9-19.2c-0.7-7.2-5.1-11.8-12.7-13.4c-2-0.4-4-0.6-6-0.7c-10.5-0.2-20.1,3.2-29.1,8.3
	c-10.6,6.2-19.9,13.6-23.9,26c-0.7,2.2-2.5,2.8-4.6,2.8c-2.4-0.1-4.7-0.3-7.1-0.7c-9.3-1.5-18.5-3.7-28-2.4
	c-5.2,0.7-10.5,1.3-15.7,2.4c-5,1-8.4-0.3-11.3-4.8c-5.7-9-13-16.5-21.9-22.3C187.9,2.2,176.1-1.2,163,0.4
	c-8.6,1-17.5,14.2-12.2,23.2c3.9,6.7,9.3,10.8,17.5,11.5c10,0.9,17.3,6.4,21.8,15.4c2.1,4.2,0.9,7.1-2.9,9.8
	c-2.3,1.7-4.7,3.6-6.4,5.9c-13.4,17.8-23,37.1-24.5,59.8c-0.2,3.2-1.4,5.7-4.1,7.3c-3,1.8-6.1,3.7-9.3,5.2
	c-30.6,14.8-57.9,34.2-81.1,59.2C36.6,224.5,18,255,7,290c-6,19-7,38.7-7,58.5c0,18,4.7,34.8,13.4,50.5
	c11.5,20.8,28.6,34.4,51.9,39.4c13.8,3,28,2.9,42,2.2c7.5-0.3,15-1.5,22.5-2.3c4.1-0.5,5.1,0,6.7,3.8c1.1,2.8,2.1,5.6,3.4,8.4
	c9.2,19.3,22.1,36,36.6,51.6c15.1,16.2,32.9,27.6,54.7,32.3c4.9,1.1,9.8,1.7,14.8,2.5h14.8c0.9-0.2,1.8-0.4,2.6-0.5
	c18.4-1.9,35.7-7.5,50.3-18.9c25.7-20,45.8-44.6,57.9-75.2c1.5-3.9,2.7-4.6,6.9-3.9c3,0.5,5.9,1.2,8.9,1.5
	c14.6,1.4,29.2,1.1,43.8,0.1c23-1.5,41.6-11.4,56-29.2c12.7-15.9,18.6-34.5,20.6-54.5C510.4,331,506.7,306.4,498.2,282.7z
	 M193.8,116.6c0.1-0.8,0.3-1.6,0.6-2.4c6-15.8,15.1-29.1,30.4-37.2c7.9-4.2,18.2-6.6,28.1-6.7c13.6,0.1,25.2,3.2,34.9,9.2
	c9.6,6,17.2,15.1,22.9,27.1c1.6,3.3,2.9,6.9,3.8,10.5c0.7,3.1-0.6,4.2-3.7,3.4c-12.1-3.1-24.4-4.2-36.8-5.2
	c-24.2-1.9-48.3-0.3-72.2,4.2c-1.3,0.2-2.6,0.7-4,1C194.5,121.2,193.2,120,193.8,116.6z M272.3,364.5c1,1.7,1.7,3.5,2.9,5.8
	c-14,1.3-27.2-0.2-40.5-0.3l-0.7-0.9c6.1-10.3,12.1-20.7,18.3-30.9c1.6-2.7,2.5-2.6,4.3,0.1c1.6,2.2,2.9,4.6,4.3,7
	C264.8,351.6,268.5,358.1,272.3,364.5z M79.1,404.4c-21.1-2.7-33.3-15.3-39.5-34.8c-5.1-16.2-5.6-32.7-2.4-49.2
	c8.5-44.1,30.5-80.7,63.2-111c32.8-30.4,72-47.8,115.5-56.3c6.4-1.3,13.2-1.2,19.8-1.7c0,7.3,0.1,14.3,0.1,21.1
	c0,3.4,0,6.8-0.1,10.1c-0.4,22.3-0.8,44.7-1.6,67.1c-0.6,17.2-1.6,34.5-7,51.1c-11.9,36.3-32,66.7-65.3,86.8
	C136.2,402.8,108.6,408.2,79.1,404.4z M303.9,480.2c-9.5,8.1-19.7,15.7-31.9,18.6c-21.3,5-41.5,2.3-59-12.3
	c-3.7-3.1-7.3-6.5-10.8-10c34.3,5.5,68.5,3.3,102.8,0.8l0.3,1.1C304.9,479,304.5,479.7,303.9,480.2z M338,430
	c-1.3,3.2-3.6,5.5-6.9,6.2c-7.2,1.6-14.4,3.5-21.7,4.1c-19.1,1.5-38.2,2.3-57.3,3.4c-11.5-0.2-23.1-0.5-34.6-1.4
	c-11.5-0.8-23-2.1-34.4-4c-2-0.3-3.9-0.9-5.8-1.4c-5-1.3-6.7-5.3-7.8-9.6c-0.2-1,0.7-2.6,1.6-3.4c1.7-1.4,3.7-2.3,5.6-3.4
	c5.9-3.7,12.1-7.2,17.7-11.4c5.4-4,11.1-3.7,17-3c21.3,2.6,42.6,1.7,64,1.3c11.7-0.2,23.3,0,35,0.2c1.4,0,2.8,1,4.1,1.8
	c5.1,3.2,10.1,6.5,15.1,9.8c2.2,1.4,4.5,2.7,6.7,4.3C339,425.3,339.3,426.9,338,430z M468.5,370.2c-0.9,2.8-2.1,5.5-3.3,8.1
	c-7.1,16-19.7,24.8-36.8,26.4c-45.4,4.4-83.7-10.6-114.2-44.3c-20.6-22.8-32.7-50.2-37.7-80.4c-1.9-11.8-2-24-2.4-36
	c-0.8-29.6-1.2-59.1-1.8-88.7v-3.4c1.7-0.2,3.4-0.2,5.1-0.2c7.1,0,13.9,1.4,20.7,2.8c36.9,7.4,70.3,22.2,99.5,46
	c35.6,29.1,60,65.6,71.4,110.3C474.2,330.6,474.8,350.5,468.5,370.2z"/>
<path d="M275.2,370.3c-14,1.3-27.2-0.2-40.5-0.3l-0.7-0.9c6.1-10.3,12.1-20.7,18.3-30.9c1.6-2.7,2.5-2.6,4.3,0.1
	c1.6,2.2,2.9,4.6,4.3,7c3.9,6.3,7.6,12.8,11.4,19.2C273.3,366.2,274,368,275.2,370.3z"/>
<path d="M305.3,478.4c-0.4,0.6-0.8,1.3-1.4,1.8c-9.5,8.1-19.7,15.7-31.9,18.6c-21.3,5-41.5,2.3-59-12.3c-3.7-3.1-7.3-6.5-10.8-10
	c34.3,5.5,68.5,3.3,102.8,0.8L305.3,478.4z"/>
<path d="M310.8,120.4c-12.1-3.1-24.4-4.2-36.8-5.2c-24.2-1.9-48.3-0.3-72.2,4.2c-1.3,0.2-2.6,0.7-4,1c-3.4,0.8-4.7-0.4-4.1-3.8
	c0.1-0.8,0.3-1.6,0.6-2.4c6-15.8,15.1-29.1,30.4-37.2c7.9-4.2,18.2-6.6,28.1-6.7l0,0c27.3,0.2,46.4,12.3,57.8,36.3
	c1.6,3.3,2.9,6.9,3.8,10.5C315.2,120.1,313.8,121.2,310.8,120.4z"/>
</svg>
